<?xml version="1.0" encoding="utf-8"?>
<!-- Generator: Adobe Illustrator 19.0.0, SVG Export Plug-In . SVG Version: 6.00 Build 0)  -->
<svg version="1.1" id="Layer_1" xmlns="http://www.w3.org/2000/svg" xmlns:xlink="http://www.w3.org/1999/xlink" x="0px" y="0px"
	 viewBox="-126.6 254.6 2060.5 356.4" style="enable-background:new -126.6 254.6 2060.5 356.4;" xml:space="preserve">
<style type="text/css">
	.st0{fill:#E32328;}
	.st1{fill:#FFFDFD;}
	.st2{fill:#FFFFFF;}
</style>
<path class="st0" d="M-70.2,259.8c1.8-2.2,4.3-3.7,6.7-5.2c1.4,1.1,2.7,2.2,4.1,3.3c1.9-0.8,3.8-1.5,5.7-2.1
	c3.8,3.1,4.9,7.9,6.3,12.4c4.7-0.5,8,3.3,12,5c2,0,4-0.2,6-0.3c2,11,2.3,22.3,2.6,33.4c-0.5,9.2,1.2,18.3,0,27.5
	c0.1,17.3-1.5,34.5-3.2,51.6c-0.4,8.9-2.4,17.6-3.3,26.4c-1.4,13.9-3.9,27.6-6.8,41.3c-7,35.7-16.7,71-29.9,104.9
	c-3.3,7.7-5.9,15.7-10.3,22.9c-1.8-0.8-3.5-1.7-5.3-2.4c-4.9,0.6-9.6,2.3-14.6,2c-2.1,3.3-5.1,5.7-8.4,7.6c-1.4-1.1-2.7-2.2-4-3.3
	c-1.9,0.8-3.9,1.4-5.8,2c-2.2-2.2-4.1-4.7-4.9-7.8c-3.2-10.6-2.7-21.8-3.3-32.8c0.4-15.7,0.7-31.4,2.3-47c0-5.7,1.4-11.3,1.4-17
	c0.2-5.4,1.7-10.6,1.9-16c0.8-13.4,4.5-26.3,5.3-39.7c1.3-7.2,2.4-14.4,3.7-21.6c3.2-12.3,3.9-25,7.4-37.3
	c5.8-28.7,13.2-57.2,23-84.8C-78.3,275.2-75.4,266.8-70.2,259.8z"/>
<path class="st1" d="M-46.5,269.5c0.3,0,0.8,0.1,1,0.1c4.1,14.2,3.6,29.2,3.6,43.8c-0.3,11-0.9,22-2,33c0.2,5.3-1.4,10.5-1.3,15.8
	c0.2,4.6-1.3,9-1.8,13.6c-1.2,6.9-1.2,14-2.5,20.9c-3.5,20.8-6.8,41.7-10.4,62.5c-2.9,10.5-3.9,21.4-6.9,31.8
	c-5.1,23.4-11.2,46.8-20.1,69.1c-2.7,6.8-6,13.4-10.4,19.3c-0.3-0.1-0.9-0.2-1.2-0.3c-0.4-1.7,0.8-3.1,1.3-4.5
	c6.6-13,10.8-27,15.2-40.8c5.4-19,10.4-38.1,14.1-57.5c2.8-9.9,4.1-20.1,5.9-30.2c3-13.4,5.3-27,6.7-40.7
	c1.9-11.1,3.9-22.2,4.5-33.4c1.6-7.3,1.4-14.7,2.5-22c2-25.2,4.1-50.5,1.4-75.7C-46.8,272.8-47.4,271-46.5,269.5z"/>
<path class="st1" d="M-67,282.8c2.1-4.4,3.4-9.2,5.5-13.6c2,5.8,1.4,12.1,2.1,18.1c0.4,24.1-1.5,48.1-3.9,72
	c0.1,5.2-1.4,10.2-1.9,15.3c-1.1,8.1-1.3,16.3-3.2,24.4c-2.6,17.5-5.6,35-8.7,52.4c-0.8,9-4.1,17.5-5.3,26.5
	c-0.6,5.9-3.1,11.4-3.9,17.3c-4.7,19.6-9.9,39.2-16.7,58.3c-1.9,7.1-5,13.7-8.8,20c-0.2-6-1.7-11.9-1.3-17.9
	c-0.4-8.9,0.3-17.9-0.1-26.8c1.3-5.6,1.1-11.4,0.8-17.1c1-4.3,1.3-8.7,0.9-13c1.6-6.5,2.6-13.2,2.4-20c2.2-8.4,2-17.1,3-25.6
	c2.2-8.3,3.3-16.9,4.2-25.4c2.2-8.7,2.7-17.8,4.8-26.5c1.9-8.5,1.8-17.4,4.8-25.7c1.3-4.5,2-9.2,2.7-13.9
	c3.7-14.7,7.3-29.5,10.8-44.3c1-2.6,2.1-5.1,2.6-7.8C-74.3,300.1-69.8,291.7-67,282.8z"/>
<path class="st0" d="M-24.3,280.3c11.1,2.8,21.6,7.1,32.6,10.1c4.9,1.5,9.8,3.2,14.3,5.8c2.7,18.7,4.1,37.7,3.4,56.6
	c0.5,13.8-0.3,27.7-1.9,41.4c0.2,4.2-0.6,8.3-1,12.4c-0.5,10.2-2.6,20.3-4.2,30.4c-2,11.3-3.4,22.6-6.4,33.7
	c-2,9.9-4.4,19.8-7.4,29.5c-1.2,2.4-1.7,5-2.1,7.6c-6.7,22.8-15.1,45.2-25.9,66.4c-0.4,1.1-1.7,1.1-2.6,1.4
	c-8.4,1.9-17,0.5-25.4,0.4c-7.4,0-14.7,0-22.1-0.5c14.2-32.7,24.7-67.1,32.4-102c2.5-6.6,2.7-13.8,4.3-20.6
	c3.9-18.2,6.2-36.7,9-55.1c1.5-5.9,0.8-12.1,1.9-18c0.7-8.8,1.3-17.6,2-26.4c0.4-7.5,0.3-15,1-22.5
	C-23.1,314.1-22.5,297.1-24.3,280.3z"/>
<path class="st0" d="M27.3,299c18.5,5,36.8,11.1,55.3,16.2c4.8,1.4,9.7,2.7,14.3,4.6c7.4,1.6,14.6,3.8,21.8,6.1
	c18.3,5.3,36.5,10.6,54.7,16.3c16.6,4.7,33.1,9.7,49.6,14.7c8.5,3.1,17.8,4.4,25.8,8.9c2.1,1,2.7,3.4,3.6,5.4
	c11.3,27.5,14.9,57.8,12.6,87.3c-0.4,9-2.6,17.8-3.6,26.8c-6,32.6-19.2,64.3-40.3,90.1c-1.6,1.7-3.3,3.4-4.9,5.2
	c-2.5,2.8-6.7,2.5-10.1,2.7c-27.7-0.4-55.4-2.2-83-2.8c-7.3-0.8-14.7-0.1-22-1.5c-8.3,0.5-16.6,0-24.9-0.8
	c-5.7,0.2-11.4-0.2-17.2-0.3c-3.1,0-6.1-1.3-9.3-0.7c-13.3,0.1-26.5-0.9-39.8-1.3c-9.6-1-19.4-0.3-29-1.3
	c5.6-11.3,10.4-23,15.3-34.8c4-12.3,8.6-24.5,12.1-37c2.3-8.8,4.5-17.5,6.7-26.3c1.1-8.1,4-15.9,5-24.1c2.3-15.4,5.8-30.8,6.7-46.4
	c3.4-30.4,4.2-61.2,1.7-91.7C28.1,309.2,27.6,304.1,27.3,299z"/>
<path class="st1" d="M-10.2,300.2c3.6,0.2,6.9,1.8,10.3,2.6c6,2,12.4,3,17.9,6c2.2,2.9,2,6.6,1.7,10c-8-5.4-15.6-11.4-24.3-15.5
	C-6.5,302.4-8.4,301.3-10.2,300.2z"/>
<path class="st1" d="M35,313.5c7.2,1.6,14.3,3.9,21.3,6.1c29.1,8.8,58.1,17.6,87.2,26.6c12.2,3.2,24.1,7.7,36.3,11
	c7.7,2,15.1,4.6,22.7,7.1c16.5,4.6,32.8,10.1,49.2,14.8c2.5,1.5,1.8,5.1,2.8,7.6c-16.7-4.4-33-10.3-49.8-14.5
	c-10.6-3.6-21.4-7-32.3-9.7c-13.6-4.9-27.7-8.2-41.4-12.9c-7.1-2.4-14.6-3.6-21.6-6.3C88,336.5,66.5,330.2,45,323.8
	c-2.8-1-5.7-1.6-8.3-2.9C35.4,318.7,35.4,316,35,313.5z"/>
<path class="st0" d="M-64.3,338.6C-63.8,339.2-63.8,339.2-64.3,338.6z"/>
<path class="st0" d="M256.5,370.5c3,0.4,6,1.2,8.9,2.1c4.7,1.1,9.5,1.8,13.8,3.8c1.5,0.5,2.2,2,2.8,3.3
	c10.3,27.1,13.2,56.5,10.9,85.3c-1.5,8.9-1.2,18-3.7,26.8c-1.9,5.9-2.3,12.1-4.4,18c-7,24.5-18,48.1-33.9,68
	c-1.6,1.7-2.9,4.4-5.6,4.4c-7.6,0.5-15.1-1.4-22.8-1.3c3.3-6,8.2-10.9,11.8-16.6c16-23.9,26.5-51.5,31.4-79.8
	C273,446.7,270.9,406.5,256.5,370.5z"/>
<path class="st0" d="M287.7,383.7c3.6,0.1,7.2,0.7,10.7,1.5c9.1,5,13.6,14.9,17,24.3c4.9,14.8,6.2,30.4,6.2,45.9
	c-0.7,6-0.5,12-0.9,18c-3.1,25.8-9,51.8-21.6,74.8c-5,10.1-12.4,18.9-20.8,26.3c-4.3,3-9.2,6.5-14.7,5.3c-2.7-0.6-5.5-0.9-8.3-1.1
	c4.3-6.8,9.2-13.2,13.1-20.2c9.8-16.5,16.4-34.7,21.7-53c1.7-10.6,5.5-20.8,5.6-31.5c2.9-21.9,2.1-44.3-2-66
	C292.8,399.6,289.5,391.9,287.7,383.7z"/>
<path class="st1" d="M266.4,384.5c4.2,0.2,8.7-0.5,12.7,1.2c3.4,1.8,3.1,6.2,3.8,9.5c-5,0.2-9.8-1.2-14.8-1.3
	C267.5,390.8,267.1,387.6,266.4,384.5z"/>
<path class="st1" d="M293.9,390.5c3.3,1.7,6.7,4,7.8,7.7C297.3,398.3,295.2,394.3,293.9,390.5z"/>
<path class="st1" d="M41.8,413.2c24.2-0.2,48.4,0,72.6-0.1c7.8-0.1,15.6,0.9,22.8,4c0.9-1.2,1.7-2.5,2.7-3.6c1.4-0.6,3-0.3,4.5-0.4
	c23.4,0.1,46.7,0,70.1,0.1c8.9,0.4,18.4,2,25.4,7.8c6.1,5.2,7.6,14,5.7,21.5c-1.8,6.1-6.2,11-11,15c-8,6.5-17.5,10.5-26.8,14.5
	c4.1,8.8,8.2,17.6,12.2,26.4c9.1,0.1,18.3-0.1,27.4,0.2c-0.8,6.7-7.4,11-13.8,10.8c-10-0.1-20.1,0.2-30.1-0.1
	c-4.8-0.3-7.5-4.8-9.2-8.7c-4.8-10.7-9.7-21.3-14.4-32c6.9-2.1,13.6-4.6,20.3-7.3c6.1-2.7,12.4-6.7,15.1-13.1
	c1.8-4.6,1.6-10.8-2.5-14.1c-4-3.2-9.3-3.5-14.2-3.6c-17,0.4-34,0.2-51,0.2c0.5,6.4,0.3,13.1-3.1,18.8c-4.1,7.6-11,13.2-18.3,17.7
	c-16,9.6-33.9,15.1-52.1,18.7c-2.4,7.9-4.8,15.8-7.3,23.7c-8.3,0-16.6,0-24.9,0c7.3-23.4,14.6-46.8,21.8-70.2c8.3-0.1,16.6,0,24.9,0
	c-3.4,10.9-6.9,21.7-10.2,32.7c11.7-2.6,23.4-7.1,32.3-15.3c5.2-4.7,8.8-12,7-19.1c-0.7-3.4-3.7-5.7-7-6.2c-5.3-1-10.8-0.8-16.2-0.9
	c-21.1,0-42.1,0-63.1,0C34.7,424.6,38.3,419,41.8,413.2z"/>
<path class="st1" d="M161.9,439.2c8.2-0.1,16.5-0.1,24.7,0c-7.1,23.4-14.6,46.7-21.7,70.1c-8.3,0.1-16.6,0-24.9,0
	C147.3,486,154.6,462.6,161.9,439.2z"/>
<g>
	<path class="st2" d="M595.6,386c0,26.2-18.1,48.7-54.3,67.5c-24.2,12.7-52.9,22.3-86.3,28.8l-16.2,46.2h-48.5l48.5-136.3h48.1
		L464,456.2c17.2-3.9,32.4-10,45.7-18.2c18.5-11.6,28.1-25.1,28.8-40.5c0.4-9.9-2.9-16.4-10-19.5c-4.3-1.9-11.9-2.8-23-2.8H369.8
		l20.7-33.5h136.8c20,0,35.3,2.5,45.8,7.4C588.1,356.1,595.6,368.4,595.6,386z"/>
	<path class="st2" d="M745.4,507.3c-4.3,14.2-15.1,21.3-32.5,21.3h-50.3c-14.3,0-21.5-4.6-21.5-13.8c-9.7,11-21.5,16.5-35.6,16.5
		c-10.4,0-18.8-3.2-25.2-9.6s-9.7-14.7-9.7-25c0-18.5,7.1-33.1,21.3-43.8c12.8-9.7,28.7-14.6,47.7-14.6h75.8l-25,69.1H745.4z
		 M659.7,459.5h-29.4l-9.3,30.9c-0.5,1.9-0.8,3.7-0.8,5.3c0,7.7,7.5,11.6,22.6,11.6L659.7,459.5z"/>
	<path class="st2" d="M900.7,507.3c0,6.2-3.4,11.4-10.2,15.7c-6,3.7-12.3,5.6-18.9,5.6h-50.9c-13.5,0-20.2-5.6-20.2-16.7
		c0-2.8,0.6-5.9,1.7-9.2l15-43.2H789l-14.7,38.1c-2.5,6.5-7.8,9.7-16.1,9.7h-14.1l17.4-47.8c-5.5-1.2-9.9-4-13.3-8.3
		c-3.4-4.3-5.1-9.2-5.1-14.8c0-10.2,4.7-18.1,14.2-23.6c7.9-4.6,17.3-6.9,28.2-6.9h21.5l-11.2,32.4h73.4L845,507.3H900.7z"/>
	<path class="st2" d="M1018.7,507.3c-4.2,14.2-15.2,21.3-33.2,21.3h-67.7c-13.1,0-19.7-4.6-19.7-13.8c0-2.3,0.5-4.8,1.5-7.4
		l16.9-47.8h-21.8l8.4-21.3c15.5-4,27-9.1,34.5-15.3c8.5-7,17.6-19.7,27.2-38h25.9L972,438.2h34.3c-5.5,14.2-16.6,21.3-33.5,21.3
		H964l-16.6,47.8H1018.7z"/>
	<path class="st2" d="M1195.5,507.3c-5.2,14.2-15,21.3-29.4,21.3h-32.4c-7.7,20.9-15.8,36.4-24.3,46.5c-11.9,14-26.6,21-44.2,21
		c-11.1,0-19.6-3.2-25.6-9.7c-5.2-5.7-7.8-13-7.8-21.9c0-7.1,1.5-13.9,4.6-20.6s7.1-11.7,12-15.3h-10.1c-5.8,0-10.7-1.8-14.5-5.4
		s-5.8-8.1-5.8-13.5c0-2.5,0.4-5,1.3-7.6l23.1-63.9h48.2l-24.8,69.1h27l24.4-69.1h47.9l-24.4,69.1H1195.5z M1084.3,532.1
		c-5.8,0-11.3,3.3-16.3,9.9c-5,6.6-7.5,13.2-7.5,19.7c0,5.8,2.6,10.5,7.7,14.1L1084.3,532.1z"/>
	<path class="st2" d="M1428.9,507.3c-0.4,6.6-3.5,12-9.3,15.9c-5.3,3.5-11.5,5.3-18.5,5.3H1350c-7,0-12.3-1.9-15.9-5.6
		c-2.4-2.4-5.4-7.6-9-15.7l-26.2-57.9c3.3-0.6,10.8-3.1,22.7-7.6c11.5-4.3,18.7-7.2,21.6-8.8c17.6-9.1,26.4-20.5,26.4-34.3
		c0-15.8-11.2-23.6-33.5-23.6h-135.5l20.7-33.5h133.7c48.1,0,72.1,15.3,72.1,46c0,25.9-25,48.6-75,68l23.9,51.7H1428.9z
		 M1317.7,392.3l-48.5,136.3h-47.8l48.1-136.3H1317.7z"/>
	<path class="st2" d="M1654.9,438.2c-3.5,14.2-14.2,21.3-31.9,21.3h-83.1c2.9,1.9,5.3,5.5,7.2,10.7s2.6,9.7,2.3,13.5
		c-1.2,14.8-7.7,26.4-19.5,34.8c-11.2,8.1-25.9,12.1-43.8,12.2c-20.9,0.2-37-3.9-48.2-12.4c-10-7.4-15-17.2-15-29.4
		c0-2.4,0.2-4.8,0.7-7.2c2.3-13.4,8.9-23.9,19.9-31.5c11.7-8.1,27.3-12.1,46.8-12.1H1654.9z M1510.1,459.5h-30.4l-12,34
		c-0.6,1.8-0.9,3.5-0.9,5c0,7.6,7.1,11.4,21.3,11.4c1.7,0,3.1,0,4.4-0.1L1510.1,459.5z"/>
	<path class="st2" d="M1753.1,507.3c-1.9,6.9-6,12.3-12.2,16.1c-5.7,3.5-12.3,5.2-19.8,5.2h-80c-15.2,0-28-2.6-38.4-7.7
		c-13.1-6.5-19.7-16.2-19.7-29.2c0-1.4,0.1-2.9,0.3-4.4c1.8-15.8,10-28.2,24.7-37.2c12.9-7.9,28.2-11.8,45.8-11.8h33.5
		c7.5,0,13.9,2.4,19.3,7.2s8,10.6,8,17.5c0,7-2.7,12.9-8,17.8c-5.4,4.9-11.8,7.3-19.2,7.3c-7.5,0-13.9-2.5-19.2-7.4
		c-5.3-4.9-7.9-10.9-7.8-18v-3.2h-16.1l-10.4,29.4c-0.9,2.5-1.3,4.7-1.3,6.8c0,7.8,6.2,11.7,18.5,11.7H1753.1z"/>
	<path class="st2" d="M1933.4,507.3c-2.2,7.8-7.3,13.5-15.3,17.3c-5.6,2.7-11.6,4-17.9,4H1848c-12.1,0-18.2-4.7-18.2-14.1
		c0-2.9,0.6-6.1,1.9-9.6l13.7-37.1c-4.1,4.3-20.3,19-48.7,44.4c-7,6.4-12.3,10.5-15.9,12.5c-4.8,2.6-10.5,3.9-17.3,3.9h-19.8
		l56.6-160.2h47.8l-35.3,99.2l53-52.7h30.5l-30.8,31.9h10.1c12.3,0,18.5,4.7,18.5,14.2c0,3-0.7,6.5-2.1,10.5l-13,35.9H1933.4z"/>
</g>
</svg>
