<?xml version="1.0" encoding="utf-8"?>
<!-- Generator: Adobe Illustrator 19.0.0, SVG Export Plug-In . SVG Version: 6.00 Build 0)  -->
<svg version="1.1" id="Layer_1" xmlns="http://www.w3.org/2000/svg" xmlns:xlink="http://www.w3.org/1999/xlink" x="0px" y="0px"
	 viewBox="-66 248.9 463 345" style="enable-background:new -66 248.9 463 345;" xml:space="preserve">
<style type="text/css">
	.st0{fill:#E32328;}
	.st1{fill:#FFFDFD;}
</style>
<path class="st0" d="M-2.6,259.6c1.8-2.2,4.3-3.7,6.7-5.2c1.4,1.1,2.7,2.2,4.1,3.3c1.9-0.8,3.8-1.5,5.7-2.1
	c3.8,3.1,4.9,7.9,6.3,12.4c4.7-0.5,8,3.3,12,5c2,0,4-0.2,6-0.3c2,11,2.3,22.3,2.6,33.4c-0.5,9.2,1.2,18.3,0,27.5
	c0.1,17.3-1.5,34.5-3.2,51.6c-0.4,8.9-2.4,17.6-3.3,26.4c-1.4,13.9-3.9,27.6-6.8,41.3c-7,35.7-16.7,71-29.9,104.9
	c-3.3,7.7-5.9,15.7-10.3,22.9c-1.8-0.8-3.5-1.7-5.3-2.4c-4.9,0.6-9.6,2.3-14.6,2c-2.1,3.3-5.1,5.7-8.4,7.6c-1.4-1.1-2.7-2.2-4-3.3
	c-1.9,0.8-3.9,1.4-5.8,2c-2.2-2.2-4.1-4.7-4.9-7.8c-3.2-10.6-2.7-21.8-3.3-32.8c0.4-15.7,0.7-31.4,2.3-47c0-5.7,1.4-11.3,1.4-17
	c0.2-5.4,1.7-10.6,1.9-16c0.8-13.4,4.5-26.3,5.3-39.7c1.3-7.2,2.4-14.4,3.7-21.6c3.2-12.3,3.9-25,7.4-37.3
	c5.8-28.7,13.2-57.2,23-84.8C-10.7,275-7.8,266.6-2.6,259.6z"/>
<path class="st1" d="M21.1,269.3c0.3,0,0.8,0.1,1,0.1c4.1,14.2,3.6,29.2,3.6,43.8c-0.3,11-0.9,22-2,33c0.2,5.3-1.4,10.5-1.3,15.8
	c0.2,4.6-1.3,9-1.8,13.6c-1.2,6.9-1.2,14-2.5,20.9c-3.5,20.8-6.8,41.7-10.4,62.5c-2.9,10.5-3.9,21.4-6.9,31.8
	c-5.1,23.4-11.2,46.8-20.1,69.1c-2.7,6.8-6,13.4-10.4,19.3c-0.3-0.1-0.9-0.2-1.2-0.3c-0.4-1.7,0.8-3.1,1.3-4.5
	c6.6-13,10.8-27,15.2-40.8c5.4-19,10.4-38.1,14.1-57.5c2.8-9.9,4.1-20.1,5.9-30.2c3-13.4,5.3-27,6.7-40.7
	c1.9-11.1,3.9-22.2,4.5-33.4c1.6-7.3,1.4-14.7,2.5-22c2-25.2,4.1-50.5,1.4-75.7C20.8,272.6,20.2,270.8,21.1,269.3z"/>
<path class="st1" d="M0.6,282.6c2.1-4.4,3.4-9.2,5.5-13.6c2,5.8,1.4,12.1,2.1,18.1c0.4,24.1-1.5,48.1-3.9,72
	c0.1,5.2-1.4,10.2-1.9,15.3c-1.1,8.1-1.3,16.3-3.2,24.4c-2.6,17.5-5.6,35-8.7,52.4c-0.8,9-4.1,17.5-5.3,26.5
	c-0.6,5.9-3.1,11.4-3.9,17.3c-4.7,19.6-9.9,39.2-16.7,58.3c-1.9,7.1-5,13.7-8.8,20c-0.2-6-1.7-11.9-1.3-17.9
	c-0.4-8.9,0.3-17.9-0.1-26.8c1.3-5.6,1.1-11.4,0.8-17.1c1-4.3,1.3-8.7,0.9-13c1.6-6.5,2.6-13.2,2.4-20c2.2-8.4,2-17.1,3-25.6
	c2.2-8.3,3.3-16.9,4.2-25.4c2.2-8.7,2.7-17.8,4.8-26.5c1.9-8.5,1.8-17.4,4.8-25.7c1.3-4.5,2-9.2,2.7-13.9
	c3.7-14.7,7.3-29.5,10.8-44.3c1-2.6,2.1-5.1,2.6-7.8C-6.7,299.9-2.2,291.5,0.6,282.6z"/>
<path class="st0" d="M43.3,280.1c11.1,2.8,21.6,7.1,32.6,10.1c4.9,1.5,9.8,3.2,14.3,5.8c2.7,18.7,4.1,37.7,3.4,56.6
	c0.5,13.8-0.3,27.7-1.9,41.4c0.2,4.2-0.6,8.3-1,12.4c-0.5,10.2-2.6,20.3-4.2,30.4c-2,11.3-3.4,22.6-6.4,33.7
	c-2,9.9-4.4,19.8-7.4,29.5c-1.2,2.4-1.7,5-2.1,7.6c-6.7,22.8-15.1,45.2-25.9,66.4c-0.4,1.1-1.7,1.1-2.6,1.4
	c-8.4,1.9-17,0.5-25.4,0.4c-7.4,0-14.7,0-22.1-0.5c14.2-32.7,24.7-67.1,32.4-102c2.5-6.6,2.7-13.8,4.3-20.6
	c3.9-18.2,6.2-36.7,9-55.1c1.5-5.9,0.8-12.1,1.9-18c0.7-8.8,1.3-17.6,2-26.4c0.4-7.5,0.3-15,1-22.5
	C44.5,313.9,45.1,296.9,43.3,280.1z"/>
<path class="st0" d="M94.9,298.8c18.5,5,36.8,11.1,55.3,16.2c4.8,1.4,9.7,2.7,14.3,4.6c7.4,1.6,14.6,3.8,21.8,6.1
	c18.3,5.3,36.5,10.6,54.7,16.3c16.6,4.7,33.1,9.7,49.6,14.7c8.5,3.1,17.8,4.4,25.8,8.9c2.1,1,2.7,3.4,3.6,5.4
	c11.3,27.5,14.9,57.8,12.6,87.3c-0.4,9-2.6,17.8-3.6,26.8c-6,32.6-19.2,64.3-40.3,90.1c-1.6,1.7-3.3,3.4-4.9,5.2
	c-2.5,2.8-6.7,2.5-10.1,2.7c-27.7-0.4-55.4-2.2-83-2.8c-7.3-0.8-14.7-0.1-22-1.5c-8.3,0.5-16.6,0-24.9-0.8
	c-5.7,0.2-11.4-0.2-17.2-0.3c-3.1,0-6.1-1.3-9.3-0.7c-13.3,0.1-26.5-0.9-39.8-1.3c-9.6-1-19.4-0.3-29-1.3
	c5.6-11.3,10.4-23,15.3-34.8c4-12.3,8.6-24.5,12.1-37c2.3-8.8,4.5-17.5,6.7-26.3c1.1-8.1,4-15.9,5-24.1c2.3-15.4,5.8-30.8,6.7-46.4
	c3.4-30.4,4.2-61.2,1.7-91.7C95.7,309,95.2,303.9,94.9,298.8z"/>
<path class="st1" d="M57.4,300c3.6,0.2,6.9,1.8,10.3,2.6c6,2,12.4,3,17.9,6c2.2,2.9,2,6.6,1.7,10c-8-5.4-15.6-11.4-24.3-15.5
	C61.1,302.2,59.2,301.1,57.4,300z"/>
<path class="st1" d="M102.6,313.3c7.2,1.6,14.3,3.9,21.3,6.1C153,328.2,182,337,211.1,346c12.2,3.2,24.1,7.7,36.3,11
	c7.7,2,15.1,4.6,22.7,7.1c16.5,4.6,32.8,10.1,49.2,14.8c2.5,1.5,1.8,5.1,2.8,7.6c-16.7-4.4-33-10.3-49.8-14.5
	c-10.6-3.6-21.4-7-32.3-9.7c-13.6-4.9-27.7-8.2-41.4-12.9c-7.1-2.4-14.6-3.6-21.6-6.3c-21.4-6.8-42.9-13.1-64.4-19.5
	c-2.8-1-5.7-1.6-8.3-2.9C103,318.5,103,315.8,102.6,313.3z"/>
<path class="st0" d="M3.3,338.4C3.8,339,3.8,339,3.3,338.4z"/>
<path class="st0" d="M324.1,370.3c3,0.4,6,1.2,8.9,2.1c4.7,1.1,9.5,1.8,13.8,3.8c1.5,0.5,2.2,2,2.8,3.3
	c10.3,27.1,13.2,56.5,10.9,85.3c-1.5,8.9-1.2,18-3.7,26.8c-1.9,5.9-2.3,12.1-4.4,18c-7,24.5-18,48.1-33.9,68
	c-1.6,1.7-2.9,4.4-5.6,4.4c-7.6,0.5-15.1-1.4-22.8-1.3c3.3-6,8.2-10.9,11.8-16.6c16-23.9,26.5-51.5,31.4-79.8
	C340.6,446.5,338.5,406.3,324.1,370.3z"/>
<path class="st0" d="M355.3,383.5c3.6,0.1,7.2,0.7,10.7,1.5c9.1,5,13.6,14.9,17,24.3c4.9,14.8,6.2,30.4,6.2,45.9
	c-0.7,6-0.5,12-0.9,18c-3.1,25.8-9,51.8-21.6,74.8c-5,10.1-12.4,18.9-20.8,26.3c-4.3,3-9.2,6.5-14.7,5.3c-2.7-0.6-5.5-0.9-8.3-1.1
	c4.3-6.8,9.2-13.2,13.1-20.2c9.8-16.5,16.4-34.7,21.7-53c1.7-10.6,5.5-20.8,5.6-31.5c2.9-21.9,2.1-44.3-2-66
	C360.4,399.4,357.1,391.7,355.3,383.5z"/>
<path class="st1" d="M334,384.3c4.2,0.2,8.7-0.5,12.7,1.2c3.4,1.8,3.1,6.2,3.8,9.5c-5,0.2-9.8-1.2-14.8-1.3
	C335.1,390.6,334.7,387.4,334,384.3z"/>
<path class="st1" d="M361.5,390.3c3.3,1.7,6.7,4,7.8,7.7C364.9,398.1,362.8,394.1,361.5,390.3z"/>
<path class="st1" d="M109.4,413c24.2-0.2,48.4,0,72.6-0.1c7.8-0.1,15.6,0.9,22.8,4c0.9-1.2,1.7-2.5,2.7-3.6c1.4-0.6,3-0.3,4.5-0.4
	c23.4,0.1,46.7,0,70.1,0.1c8.9,0.4,18.4,2,25.4,7.8c6.1,5.2,7.6,14,5.7,21.5c-1.8,6.1-6.2,11-11,15c-8,6.5-17.5,10.5-26.8,14.5
	c4.1,8.8,8.2,17.6,12.2,26.4c9.1,0.1,18.3-0.1,27.4,0.2c-0.8,6.7-7.4,11-13.8,10.8c-10-0.1-20.1,0.2-30.1-0.1
	c-4.8-0.3-7.5-4.8-9.2-8.7c-4.8-10.7-9.7-21.3-14.4-32c6.9-2.1,13.6-4.6,20.3-7.3c6.1-2.7,12.4-6.7,15.1-13.1
	c1.8-4.6,1.6-10.8-2.5-14.1c-4-3.2-9.3-3.5-14.2-3.6c-17,0.4-34,0.2-51,0.2c0.5,6.4,0.3,13.1-3.1,18.8c-4.1,7.6-11,13.2-18.3,17.7
	c-16,9.6-33.9,15.1-52.1,18.7c-2.4,7.9-4.8,15.8-7.3,23.7c-8.3,0-16.6,0-24.9,0c7.3-23.4,14.6-46.8,21.8-70.2c8.3-0.1,16.6,0,24.9,0
	c-3.4,10.9-6.9,21.7-10.2,32.7c11.7-2.6,23.4-7.1,32.3-15.3c5.2-4.7,8.8-12,7-19.1c-0.7-3.4-3.7-5.7-7-6.2c-5.3-1-10.8-0.8-16.2-0.9
	c-21.1,0-42.1,0-63.1,0C102.3,424.4,105.9,418.8,109.4,413z"/>
<path class="st1" d="M229.5,439c8.2-0.1,16.5-0.1,24.7,0c-7.1,23.4-14.6,46.7-21.7,70.1c-8.3,0.1-16.6,0-24.9,0
	C214.9,485.8,222.2,462.4,229.5,439z"/>
</svg>
